<?xml version="1.0" encoding="UTF-8"?>
<svg id="Layer_1" data-name="Layer 1" xmlns="http://www.w3.org/2000/svg" viewBox="0 0 350.35 341.92">
  <defs>
    <style>
      .cls-1 {
        fill: #99a1af;
      }
    </style>
  </defs>
  <path class="cls-1" d="M350.35,164.13v20.53c-3.11,66.54-48.54,130.8-111.38,153.81-7.34,2.69-16.51,7.43-19.98-2.94-.76-16.91.89-34.5,0-51.32-.64-12.02-3.12-22.89-11.66-31.79,28.37-2.56,57.84-13.36,70.61-40.61,13.04-27.82,13.73-69.43-8.88-92.6,4.24-11.39,4.39-24.09,1.58-35.84-.42-1.76-2.58-9.32-3.43-10.26-2.89-3.17-14.75.76-18.48,2.03-10.49,3.58-20,9.47-29.47,15.07-29.08-7.01-58.52-7.51-87.55.06-14.72-7.93-31.34-19.2-48.83-17.75-5.55,15.29-7.57,31.18-1.6,46.69-20.89,21.58-21.51,56.68-12.37,83.77,11.55,34.22,40.44,45.78,74.1,49.77-6.81,6.38-9.3,14.87-11.39,23.67-14,5.34-29.61,7.09-41.62-3.5-7.1-6.25-10.04-15.69-17.83-21.86-6.13-4.86-18.23-10.81-25.35-5.49-2.03,3.83,8.65,9.68,10.98,11.65,16.39,13.84,12.36,35.88,36.78,42.61,3.17.87,7.18,1.48,10.46,1.86,8.8,1,17.75.97,26.34-1.36-1.42,10.48,2.21,23.66.53,33.71-1.41,8.47-7.77,8.65-14.57,6.69C61.87,324.71,14.65,267.19,3.59,211.47-20.84,88.52,83.08-18.97,206.76,2.83c78.26,13.79,138.87,82,143.59,161.3Z"/>
</svg>