<?xml version="1.0" encoding="UTF-8"?>
<svg id="Layer_1" data-name="Layer 1" xmlns="http://www.w3.org/2000/svg" viewBox="0 0 250.77 246.07">
  <defs>
    <style>
      .cls-1 {
        fill: #99a1af;
      }
    </style>
  </defs>
  <path class="cls-1" d="M246.15,49.45c3.94,12.36,3.85,24.66,4.17,37.7.59,24.02.6,48.37,0,72.39-.69,27.43-2.11,50.05-24.24,69.05-18.57,15.95-40.44,16.44-63.72,17.01-24.75.61-49.83.62-74.58,0-26.96-.68-51.02-1.98-70.01-23.61C1.46,203.41,1.04,183.07.45,159.54s-.59-48.36,0-72.39c.59-23.85.9-43.67,17.19-62.6C36.42,2.72,61.2,1.45,88.1.78c29.04-.72,60.71-1.44,89.63.3,33.76,2.02,57.85,15.22,68.42,48.37ZM26.71,192.34c11.13,31.25,36.79,30.54,65.37,31.17,22.24.49,44.66.51,66.9,0,17.25-.39,37.95.51,51.89-11.35,17.68-15.04,16.25-35.27,16.73-56.61.48-21.62.49-43.4,0-65.02-.48-21.1.88-41.25-16.56-56.17-14.05-12.02-34.63-11.09-52.05-11.49-22.24-.51-44.66-.5-66.9,0s-44.61-.68-58.93,18.12c-10.81,14.19-9.91,32.49-10.3,49.54-.49,21.62-.48,43.4,0,65.02.28,12.42-.3,25.13,3.86,36.79Z"/>
  <path class="cls-1" d="M189.08,123.19c0,35.18-28.53,63.7-63.73,63.7s-63.73-28.52-63.73-63.7,28.53-63.7,63.73-63.7,63.73,28.52,63.73,63.7ZM166.6,123.2c0-22.81-18.5-41.29-41.32-41.29s-41.32,18.49-41.32,41.29,18.5,41.29,41.32,41.29,41.32-18.49,41.32-41.29Z"/>
  <ellipse class="cls-1" cx="192.19" cy="57.65" rx="14.93" ry="14.92"/>
</svg>